<?xml version="1.0" encoding="utf-8"?>
<svg viewBox="36.116 33.39 435.946 418.91" xmlns="http://www.w3.org/2000/svg">
  <g transform="matrix(1.529059, 0, 0, 1.578173, 6.32656, -48.451577)" style="">
    <g>
      <path style="fill: none; fill-rule: evenodd; stroke: rgb(38, 156, 32);" d="M 116.349 110.84 L 152.965 140.601 L 152.965 239.912 L 116.971 239.912 L 116.349 110.84 Z"/>
      <path style="fill-rule: evenodd; fill: none; stroke: rgb(38, 156, 32);" d="M 186.2 143.129 L 222.816 172.89 L 222.816 241.174 L 186.822 241.174 L 186.2 143.129 Z"/>
      <path style="fill: rgb(216, 216, 216); stroke: rgb(38, 156, 32);" d="M 162.892 136.381 L 161.959 55.633 L 197.748 75.052 L 161.959 55.633 L 162.892 136.381 Z"/>
      <g transform="matrix(1, 0, 0, 1, -16.13405, 108.523125)">
        <path style="stroke: rgb(38, 156, 32); fill: none;" d="M 261.883 63.597 L 309.04 46.842 C 315.116 46.842 323.224 79.533 315.245 79.533 L 268.507 97.529 C 281.852 93.423 269.818 61.156 261.883 63.597 Z"/>
        <path style="stroke: rgb(38, 156, 32); fill: none;" d="M 263.747 64.22 C 257.644 60.558 259.691 91.681 269.956 97.84"/>
      </g>
    </g>
    <path style="fill: rgb(216, 216, 216); stroke: rgb(38, 156, 32);" d="M 198.397 143.242 L 198.397 74.969"/>
  </g>
  <g transform="matrix(1.529059, 0, 0, 1.578173, 6.32656, -48.451577)" style="">
    <path style="fill: rgb(38, 156, 32);" d="M 72.57 147.068 L 108.565 111.673 L 108.565 240.149 L 72.571 240.149 L 72.57 147.068 Z"/>
    <path style="fill: rgb(38, 156, 32);" d="M 118.211 76.228 L 154.206 55.726 L 154.206 132.697 L 118.212 102.911 L 118.211 76.228 Z"/>
    <path style="fill: rgb(38, 156, 32);" d="M 142.242 172.376 L 178.237 144.427 L 178.237 240.635 L 142.243 240.635 L 142.242 172.376 Z"/>
    <path style="fill: rgb(38, 156, 32);" d="M 267.142 245.338 C 268.75 242.517 253.902 247.736 234.461 239.959 C 220.649 234.434 216.082 240.567 201.365 237.891 C 189.768 235.782 157.02 237.063 145.103 237.063 C 116.678 237.063 117.917 229.593 90.909 234.995 C 76.982 237.78 59.087 241.551 40.025 246.578 C 36.362 247.544 27.2 253.873 27.2 257.334 L 303.961 257.748 C 305.202 251.843 286.262 249.15 282.035 244.924 C 281.393 244.281 267.143 242.323 267.142 245.338 Z"/>
    <g transform="matrix(0.649346, 0, 0, 0.612971, 25.26244, 78.278763)" style="">
      <ellipse style="stroke: rgb(38, 156, 32); fill: rgb(38, 156, 32);" cx="337.263" cy="227.566" rx="5.585" ry="9.618"/>
      <ellipse style="stroke: rgb(38, 156, 32); fill: rgb(38, 156, 32);" cx="350.915" cy="244.631" rx="3.103" ry="8.067"/>
      <ellipse style="stroke: rgb(38, 156, 32); fill: rgb(38, 156, 32);" cx="332.92" cy="254.559" rx="1.862" ry="12.411"/>
      <ellipse style="stroke: rgb(38, 156, 32); fill: rgb(38, 156, 32);" cx="320.199" cy="257.662" rx="2.172" ry="11.79"/>
      <ellipse style="stroke: rgb(38, 156, 32); fill: rgb(38, 156, 32);" cx="347.502" cy="265.419" rx="3.413" ry="8.998"/>
      <ellipse style="stroke: rgb(38, 156, 32); fill: rgb(38, 156, 32);" cx="360.844" cy="271.934" rx="4.964" ry="6.205"/>
    </g>
  </g>
  <g transform="matrix(1.529059, 0, 0, 1.578173, 6.32656, -48.451577)" style="">
    <path d="M 23.659866333007812 289.0889892578125 L 23.659866333007812 269.8936767578125 L 30.383499145507812 269.8936767578125 Q 33.87715148925781 269.8936767578125 35.68330383300781 271.2318115234375 Q 37.48945617675781 272.5699462890625 37.48945617675781 275.1539306640625 Q 37.48945617675781 276.5645751953125 36.76435852050781 277.6390380859375 Q 36.03926086425781 278.7135009765625 34.74726867675781 279.2144775390625 Q 36.22383117675781 279.5836181640625 37.07417297363281 280.7042236328125 Q 37.92451477050781 281.8248291015625 37.92451477050781 283.4464111328125 Q 37.92451477050781 286.2149658203125 36.15791320800781 287.6387939453125 Q 34.39131164550781 289.0626220703125 31.121780395507812 289.0889892578125 Z M 27.614944458007812 280.7305908203125 L 27.614944458007812 285.9117431640625 L 31.003128051757812 285.9117431640625 Q 32.40058898925781 285.9117431640625 33.18501281738281 285.2459716796875 Q 33.96943664550781 284.5802001953125 33.96943664550781 283.4068603515625 Q 33.96943664550781 280.7701416015625 31.240432739257812 280.7305908203125 Z M 27.614944458007812 277.9356689453125 L 30.541702270507812 277.9356689453125 Q 33.53437805175781 277.8829345703125 33.53437805175781 275.5494384765625 Q 33.53437805175781 274.2442626953125 32.77632141113281 273.6707763671875 Q 32.01826477050781 273.0972900390625 30.383499145507812 273.0972900390625 L 27.614944458007812 273.0972900390625 Z M 55.41238784790039 269.8936767578125 L 55.41238784790039 282.5367431640625 Q 55.41238784790039 285.6876220703125 53.44144058227539 287.5201416015625 Q 51.47049331665039 289.3526611328125 48.05594253540039 289.3526611328125 Q 44.69412612915039 289.3526611328125 42.71658706665039 287.5728759765625 Q 40.73904800415039 285.7930908203125 40.69949722290039 282.6817626953125 L 40.69949722290039 269.8936767578125 L 44.65457534790039 269.8936767578125 L 44.65457534790039 282.5631103515625 Q 44.65457534790039 284.4483642578125 45.55765151977539 285.3118896484375 Q 46.46072769165039 286.1754150390625 48.05594253540039 286.1754150390625 Q 51.39139175415039 286.1754150390625 51.44412612915039 282.6685791015625 L 51.44412612915039 269.8936767578125 Z M 62.86089324951172 289.0889892578125 L 58.90581512451172 289.0889892578125 L 58.90581512451172 269.8936767578125 L 62.86089324951172 269.8936767578125 Z M 70.47834777832031 285.9117431640625 L 78.87629699707031 285.9117431640625 L 78.87629699707031 289.0889892578125 L 66.52326965332031 289.0889892578125 L 66.52326965332031 269.8936767578125 L 70.47834777832031 269.8936767578125 Z M 81.14091491699219 289.0889892578125 L 81.14091491699219 269.8936767578125 L 87.04716491699219 269.8936767578125 Q 89.57841491699219 269.8936767578125 91.57572937011719 271.0340576171875 Q 93.57304382324219 272.1744384765625 94.69364929199219 274.2772216796875 Q 95.81425476074219 276.3800048828125 95.81425476074219 279.0562744140625 L 95.81425476074219 279.9395751953125 Q 95.81425476074219 282.6158447265625 94.71342468261719 284.6988525390625 Q 93.61259460449219 286.7818603515625 91.60868835449219 287.9288330078125 Q 89.60478210449219 289.0758056640625 87.08671569824219 289.0889892578125 Z M 85.09599304199219 273.0972900390625 L 85.09599304199219 285.9117431640625 L 87.00761413574219 285.9117431640625 Q 89.32792663574219 285.9117431640625 90.55400085449219 284.3956298828125 Q 91.78007507324219 282.8795166015625 91.80644226074219 280.0582275390625 L 91.80644226074219 279.0430908203125 Q 91.80644226074219 276.1163330078125 90.59355163574219 274.6068115234375 Q 89.38066101074219 273.0972900390625 87.04716491699219 273.0972900390625 Z M 102.88443756103516 289.0889892578125 L 98.92935943603516 289.0889892578125 L 98.92935943603516 269.8936767578125 L 102.88443756103516 269.8936767578125 Z M 122.16423797607422 289.0889892578125 L 118.20915985107422 289.0889892578125 L 110.50994110107422 276.4591064453125 L 110.50994110107422 289.0889892578125 L 106.55486297607422 289.0889892578125 L 106.55486297607422 269.8936767578125 L 110.50994110107422 269.8936767578125 L 118.22234344482422 282.5499267578125 L 118.22234344482422 269.8936767578125 L 122.16423797607422 269.8936767578125 Z M 140.80081176757812 286.6632080078125 Q 139.73294067382812 287.9420166015625 137.78176879882812 288.6473388671875 Q 135.83059692382812 289.3526611328125 133.45755004882812 289.3526611328125 Q 130.96585083007812 289.3526611328125 129.08718872070312 288.2650146484375 Q 127.20852661132812 287.1773681640625 126.18679809570312 285.1075439453125 Q 125.16506958007812 283.0377197265625 125.13870239257812 280.2427978515625 L 125.13870239257812 278.9376220703125 Q 125.13870239257812 276.0635986328125 126.10769653320312 273.9608154296875 Q 127.07669067382812 271.8580322265625 128.90261840820312 270.7440185546875 Q 130.72854614257812 269.6300048828125 133.18069458007812 269.6300048828125 Q 136.59524536132812 269.6300048828125 138.52005004882812 271.2581787109375 Q 140.44485473632812 272.8863525390625 140.80081176757812 275.9976806640625 L 136.95120239257812 275.9976806640625 Q 136.68753051757812 274.3497314453125 135.78445434570312 273.5850830078125 Q 134.88137817382812 272.8204345703125 133.29934692382812 272.8204345703125 Q 131.28225708007812 272.8204345703125 130.22756958007812 274.3365478515625 Q 129.17288208007812 275.8526611328125 129.15969848632812 278.8453369140625 L 129.15969848632812 280.0714111328125 Q 129.15969848632812 283.0904541015625 130.30667114257812 284.6329345703125 Q 131.45364379882812 286.1754150390625 133.66848754882812 286.1754150390625 Q 135.89651489257812 286.1754150390625 136.84573364257812 285.2261962890625 L 136.84573364257812 281.9171142578125 L 133.24661254882812 281.9171142578125 L 133.24661254882812 279.0035400390625 L 140.80081176757812 279.0035400390625 Z M 161.5584716796875 285.1339111328125 L 154.6239013671875 285.1339111328125 L 153.3055419921875 289.0889892578125 L 149.0999755859375 289.0889892578125 L 156.2454833984375 269.8936767578125 L 159.9105224609375 269.8936767578125 L 167.0955810546875 289.0889892578125 L 162.8900146484375 289.0889892578125 Z M 155.6917724609375 281.9302978515625 L 160.4906005859375 281.9302978515625 L 158.0780029296875 274.7452392578125 Z M 168.8870086669922 289.0889892578125 L 168.8870086669922 269.8936767578125 L 174.7932586669922 269.8936767578125 Q 177.3245086669922 269.8936767578125 179.3218231201172 271.0340576171875 Q 181.3191375732422 272.1744384765625 182.4397430419922 274.2772216796875 Q 183.5603485107422 276.3800048828125 183.5603485107422 279.0562744140625 L 183.5603485107422 279.9395751953125 Q 183.5603485107422 282.6158447265625 182.4595184326172 284.6988525390625 Q 181.3586883544922 286.7818603515625 179.3547821044922 287.9288330078125 Q 177.3508758544922 289.0758056640625 174.8328094482422 289.0889892578125 Z M 172.8420867919922 273.0972900390625 L 172.8420867919922 285.9117431640625 L 174.7537078857422 285.9117431640625 Q 177.0740203857422 285.9117431640625 178.3000946044922 284.3956298828125 Q 179.5261688232422 282.8795166015625 179.5525360107422 280.0582275390625 L 179.5525360107422 279.0430908203125 Q 179.5525360107422 276.1163330078125 178.3396453857422 274.6068115234375 Q 177.1267547607422 273.0972900390625 174.7932586669922 273.0972900390625 Z M 191.60098266601562 269.8936767578125 L 196.53164672851562 283.8155517578125 L 201.43594360351562 269.8936767578125 L 206.63027954101562 269.8936767578125 L 206.63027954101562 289.0889892578125 L 202.66201782226562 289.0889892578125 L 202.66201782226562 283.8419189453125 L 203.05752563476562 274.7847900390625 L 197.87637329101562 289.0889892578125 L 195.16055297851562 289.0889892578125 L 189.99258422851562 274.7979736328125 L 190.38809204101562 283.8419189453125 L 190.38809204101562 289.0889892578125 L 186.43301391601562 289.0889892578125 L 186.43301391601562 269.8936767578125 Z M 214.2826385498047 289.0889892578125 L 210.3275604248047 289.0889892578125 L 210.3275604248047 269.8936767578125 L 214.2826385498047 269.8936767578125 Z M 225.03892517089844 276.5118408203125 L 228.63804626464844 269.8936767578125 L 233.18638610839844 269.8936767578125 L 227.59654235839844 279.4122314453125 L 233.33140563964844 289.0889892578125 L 228.73033142089844 289.0889892578125 L 225.03892517089844 282.3653564453125 L 221.34751892089844 289.0889892578125 L 216.74644470214844 289.0889892578125 L 222.48130798339844 279.4122314453125 L 216.89146423339844 269.8936767578125 L 221.43980407714844 269.8936767578125 Z M 249.77130126953125 273.0972900390625 L 243.89141845703125 273.0972900390625 L 243.89141845703125 289.0889892578125 L 239.93634033203125 289.0889892578125 L 239.93634033203125 273.0972900390625 L 234.13555908203125 273.0972900390625 L 234.13555908203125 269.8936767578125 L 249.77130126953125 269.8936767578125 Z M 266.54364013671875 269.8936767578125 L 266.54364013671875 282.5367431640625 Q 266.54364013671875 285.6876220703125 264.57269287109375 287.5201416015625 Q 262.60174560546875 289.3526611328125 259.18719482421875 289.3526611328125 Q 255.82537841796875 289.3526611328125 253.84783935546875 287.5728759765625 Q 251.87030029296875 285.7930908203125 251.83074951171875 282.6817626953125 L 251.83074951171875 269.8936767578125 L 255.78582763671875 269.8936767578125 L 255.78582763671875 282.5631103515625 Q 255.78582763671875 284.4483642578125 256.68890380859375 285.3118896484375 Q 257.59197998046875 286.1754150390625 259.18719482421875 286.1754150390625 Q 262.52264404296875 286.1754150390625 262.57537841796875 282.6685791015625 L 262.57537841796875 269.8936767578125 Z M 276.8925476074219 282.0621337890625 L 273.7416687011719 282.0621337890625 L 273.7416687011719 289.0889892578125 L 269.7865905761719 289.0889892578125 L 269.7865905761719 269.8936767578125 L 276.9189147949219 269.8936767578125 Q 280.3202819824219 269.8936767578125 282.1659851074219 271.4097900390625 Q 284.0116882324219 272.9259033203125 284.0116882324219 275.6944580078125 Q 284.0116882324219 277.6588134765625 283.1613464355469 278.9705810546875 Q 282.3110046386719 280.2823486328125 280.5839538574219 281.0601806640625 L 284.7367858886719 288.9044189453125 L 284.7367858886719 289.0889892578125 L 280.4916687011719 289.0889892578125 Z M 273.7416687011719 278.8585205078125 L 276.9320983886719 278.8585205078125 Q 278.4218444824219 278.8585205078125 279.2392272949219 278.1004638671875 Q 280.0566101074219 277.3424072265625 280.0566101074219 276.0108642578125 Q 280.0566101074219 274.6529541015625 279.2853698730469 273.8751220703125 Q 278.5141296386719 273.0972900390625 276.9189147949219 273.0972900390625 L 273.7416687011719 273.0972900390625 Z M 298.55963134765625 280.7701416015625 L 290.96588134765625 280.7701416015625 L 290.96588134765625 285.9117431640625 L 299.87799072265625 285.9117431640625 L 299.87799072265625 289.0889892578125 L 287.01080322265625 289.0889892578125 L 287.01080322265625 269.8936767578125 L 299.85162353515625 269.8936767578125 L 299.85162353515625 273.0972900390625 L 290.96588134765625 273.0972900390625 L 290.96588134765625 277.6719970703125 L 298.55963134765625 277.6719970703125 Z" transform="matrix(1, 0, 0, 1, 0, 0)" style="fill: rgb(38, 156, 32); text-transform: uppercase; white-space: pre;"/>
    <path d="M 230.74215698242188 310.38543090820315 L 237.4916198730469 310.38543090820315 L 237.4916198730469 312.9389953613281 L 227.56344604492188 312.9389953613281 L 227.56344604492188 297.51165161132815 L 230.74215698242188 297.51165161132815 Z M 242.33942260742188 312.9389953613281 L 239.26666870117188 312.9389953613281 L 239.26666870117188 301.4744445800781 L 242.33942260742188 301.4744445800781 Z M 239.08654174804687 298.5076477050781 Q 239.08654174804687 297.8189270019531 239.54745483398438 297.3739074707031 Q 240.00836791992188 296.92888793945315 240.80304565429688 296.92888793945315 Q 241.58712768554688 296.92888793945315 242.05333862304687 297.3739074707031 Q 242.51954956054686 297.8189270019531 242.51954956054686 298.5076477050781 Q 242.51954956054686 299.20696411132815 242.04804077148438 299.6519836425781 Q 241.57653198242187 300.0970031738281 240.80304565429688 300.0970031738281 Q 240.02955932617186 300.0970031738281 239.55805053710938 299.6519836425781 Q 239.08654174804687 299.20696411132815 239.08654174804687 298.5076477050781 Z M 247.73128967285157 301.4744445800781 L 247.82665100097657 302.75652465820315 Q 249.04515686035157 301.2625305175781 251.12191467285157 301.2625305175781 Q 253.33641662597657 301.2625305175781 254.16288146972656 303.0108215332031 Q 255.37079162597655 301.2625305175781 257.6064849853516 301.2625305175781 Q 259.47132873535156 301.2625305175781 260.38255920410154 302.3485900878906 Q 261.2937896728516 303.4346496582031 261.2937896728516 305.61736450195315 L 261.2937896728516 312.9389953613281 L 258.2210357666016 312.9389953613281 L 258.2210357666016 305.6279602050781 Q 258.2210357666016 304.6531555175781 257.83959045410154 304.2028381347656 Q 257.45814514160156 303.7525207519531 256.4939361572266 303.7525207519531 Q 255.11649475097656 303.7525207519531 254.58670959472656 305.06638793945314 L 254.59730529785156 312.9389953613281 L 251.53514709472657 312.9389953613281 L 251.53514709472657 305.6385559082031 Q 251.53514709472657 304.64255981445314 251.14310607910156 304.1975402832031 Q 250.75106506347657 303.7525207519531 249.80804748535155 303.7525207519531 Q 248.50477600097656 303.7525207519531 247.92201232910156 304.8332824707031 L 247.92201232910156 312.9389953613281 L 244.85985412597657 312.9389953613281 L 244.85985412597657 301.4744445800781 Z M 266.8764709472656 312.9389953613281 L 263.8037170410156 312.9389953613281 L 263.8037170410156 301.4744445800781 L 266.8764709472656 301.4744445800781 Z M 263.62359008789065 298.5076477050781 Q 263.62359008789065 297.8189270019531 264.0845031738281 297.3739074707031 Q 264.5454162597656 296.92888793945315 265.3400939941406 296.92888793945315 Q 266.1241760253906 296.92888793945315 266.59038696289065 297.3739074707031 Q 267.0565979003906 297.8189270019531 267.0565979003906 298.5076477050781 Q 267.0565979003906 299.20696411132815 266.5850891113281 299.6519836425781 Q 266.11358032226565 300.0970031738281 265.3400939941406 300.0970031738281 Q 264.5666076660156 300.0970031738281 264.0950988769531 299.6519836425781 Q 263.62359008789065 299.20696411132815 263.62359008789065 298.5076477050781 Z M 273.0630310058594 298.65598754882814 L 273.0630310058594 301.4744445800781 L 275.0232360839844 301.4744445800781 L 275.0232360839844 303.7207336425781 L 273.0630310058594 303.7207336425781 L 273.0630310058594 309.4424133300781 Q 273.0630310058594 310.0781555175781 273.3067321777344 310.3536437988281 Q 273.55043334960936 310.62913208007814 274.23915405273436 310.62913208007814 Q 274.74774780273435 310.62913208007814 275.13978881835936 310.5549621582031 L 275.13978881835936 312.87542114257815 Q 274.23915405273436 313.1509094238281 273.28554077148436 313.1509094238281 Q 270.0644470214844 313.1509094238281 270.00087280273436 309.8980285644531 L 270.00087280273436 303.7207336425781 L 268.3267517089844 303.7207336425781 L 268.3267517089844 301.4744445800781 L 270.00087280273436 301.4744445800781 L 270.00087280273436 298.65598754882814 Z M 282.0025268554688 313.1509094238281 Q 279.4807495117187 313.1509094238281 277.8966918945313 311.60393676757815 Q 276.31263427734376 310.0569641113281 276.31263427734376 307.4822082519531 L 276.31263427734376 307.18552856445314 Q 276.31263427734376 305.45842895507815 276.98016357421875 304.0968811035156 Q 277.64769287109374 302.73533325195314 278.8714965820312 301.9989318847656 Q 280.0953002929688 301.2625305175781 281.66346435546876 301.2625305175781 Q 284.0157104492188 301.2625305175781 285.3666625976563 302.7459289550781 Q 286.7176147460938 304.2293273925781 286.7176147460938 306.9524230957031 L 286.7176147460938 308.2027160644531 L 279.41717529296875 308.2027160644531 Q 279.5655151367188 309.32586059570315 280.31251220703126 310.0039855957031 Q 281.05950927734375 310.68211059570314 282.20384521484374 310.68211059570314 Q 283.97332763671875 310.68211059570314 284.9693237304688 309.4000305175781 L 286.4739135742187 311.0847473144531 Q 285.7851928710937 312.05955200195314 284.60906982421875 312.6052307128906 Q 283.4329467773438 313.1509094238281 282.0025268554688 313.1509094238281 Z M 281.6528686523437 303.74192504882814 Q 280.74163818359375 303.74192504882814 280.1747680664063 304.3564758300781 Q 279.60789794921874 304.9710266113281 279.44896240234374 306.1153625488281 L 283.70843505859375 306.1153625488281 L 283.70843505859375 305.8716613769531 Q 283.68724365234374 304.85447387695314 283.15745849609374 304.29819946289064 Q 282.62767333984374 303.74192504882814 281.6528686523437 303.74192504882814 Z M 287.9785522460937 307.1219543457031 Q 287.9785522460937 304.4412414550781 289.18116455078126 302.8518859863281 Q 290.38377685546874 301.2625305175781 292.47113037109375 301.2625305175781 Q 294.14525146484374 301.2625305175781 295.2366088867187 302.5128234863281 L 295.2366088867187 296.66399536132815 L 298.3093627929687 296.66399536132815 L 298.3093627929687 312.9389953613281 L 295.54388427734375 312.9389953613281 L 295.3955444335937 311.7204895019531 Q 294.25120849609374 313.1509094238281 292.44993896484374 313.1509094238281 Q 290.42615966796876 313.1509094238281 289.2023559570313 311.55625610351564 Q 287.9785522460937 309.96160278320315 287.9785522460937 307.1219543457031 Z M 291.04071044921875 307.34446411132814 Q 291.04071044921875 308.95501098632815 291.60228271484374 309.8132629394531 Q 292.1638549804687 310.6715148925781 293.23402099609376 310.6715148925781 Q 294.6538452148437 310.6715148925781 295.2366088867187 309.4742004394531 L 295.2366088867187 304.9498352050781 Q 294.66444091796876 303.7525207519531 293.2552124023438 303.7525207519531 Q 291.04071044921875 303.7525207519531 291.04071044921875 307.34446411132814 Z" transform="matrix(1, 0, 0, 1, 0, 0)" style="fill: rgb(38, 156, 32); white-space: pre;"/>
  </g>
  <rect x="41.329" y="437.346" width="305.528" height="6.856" style="fill: rgb(38, 156, 32);"/>
</svg>